<svg width="2526" height="2017" xmlns="http://www.w3.org/2000/svg" xmlns:xlink="http://www.w3.org/1999/xlink" xml:space="preserve" overflow="hidden"><defs><clipPath id="clip0"><rect x="861" y="302" width="2526" height="2017"/></clipPath></defs><g clip-path="url(#clip0)" transform="translate(-861 -302)"><path d="M2301.09 499.188C2527.87 522.229 3194.09 421.888 3322.73 632.976 3451.36 844.064 3386.67 1539.02 3072.89 1765.72 2759.11 1992.41 1758.3 2126.2 1440.06 1993.16 1121.82 1860.11 1068.28 1175.56 1163.46 967.447 1258.63 759.331 1878.01 823.253 2011.1 744.466 2144.2 665.68 1915.18 535.608 1962.03 494.728 2008.87 453.848 2074.3 476.146 2301.09 499.188Z" fill="#B4C7E7" fill-rule="evenodd" fill-opacity="1"/><path d="M2196.48 936.888C2277.89 1037.04 2369.2 1205.46 2422.71 1379.31 2476.23 1553.17 2544.65 1824.04 2517.56 1980.01 2490.47 2135.98 2450.45 2313.66 2260.18 2315.13 2069.9 2316.61 1608.65 2193.38 1375.92 1988.87 1143.19 1784.35 858.406 1323.96 863.803 1088.05 869.2 852.138 1227.89 589.692 1408.3 573.394 1588.71 557.096 1849.25 920.34 1946.28 990.26 2043.3 1060.18 1999.46 1008.88 1990.43 992.918 1981.4 976.951 1915.12 919.524 1892.09 894.46 1869.05 869.396 1845.17 861.877 1852.2 842.532 1859.23 823.187 1878.27 761.228 1934.26 778.391 1990.25 795.553 2115.07 836.735 2196.48 936.888Z" fill="#8497B0" fill-rule="evenodd" fill-opacity="1"/><path d="M1918.92 1717.88C1975.22 1546.6 2104.27 1050.44 2211.18 819.108 2318.1 587.777 2443.98 388.681 2560.38 329.901 2676.78 271.12 2811.53 328.636 2909.58 466.423 3007.64 604.211 3105.06 966.376 3148.71 1156.62 3192.36 1346.87 3237.9 1540.28 3171.48 1607.91 3105.06 1675.54 2903.26 1548.49 2750.17 1562.4 2597.07 1576.3 2364.91 1654.68 2252.94 1691.34 2140.97 1728 2134.01 1741.27 2078.34 1782.35 2022.67 1823.44 1953.08 1927.09 1918.92 1937.84 1884.76 1948.58 1874.64 1882.22 1873.37 1846.82 1872.11 1811.43 1862.62 1889.17 1918.92 1717.88Z" fill="#F8CBAD" fill-rule="evenodd" fill-opacity="1"/></g></svg>